<svg width="721" height="769" viewBox="0 0 721 769" fill="none" xmlns="http://www.w3.org/2000/svg">
<path d="M371.228 331.196V255H467.902C470.05 345.617 469.191 547.515 464.035 630.168C458.879 712.822 400.015 757.162 371.228 769L308.068 705.073C357.049 693.708 370.584 650.401 371.228 630.168V418.369H0L35.4471 336.362L371.228 331.196Z" fill="url(#paint0_linear_3_67)"/>
<path d="M720.469 0.702148L681.793 88.3662L681.662 88.665H465.897V170.173H568.545C589.265 170.713 617.582 178.156 640.728 197.849C663.892 217.557 681.836 249.5 681.836 298.946C681.836 348.411 662.051 379.285 637.968 397.645C613.918 415.979 585.611 421.811 568.533 421.274V421.275H497.553L497.803 420.602L530.033 333.581L530.165 333.224L530.545 333.257C541.46 334.22 558.144 333.638 572.075 328.786C579.037 326.361 585.281 322.881 589.78 318.023C594.268 313.177 597.039 306.939 597.039 298.946C597.039 282.839 591.185 272.283 583.985 265.617C576.777 258.944 568.192 256.147 562.702 255.614H167.568L167.54 255.611C147.05 253.347 119.741 244.613 97.6127 224.788C75.4679 204.948 58.5446 174.031 58.8032 127.482C59.062 80.8931 80.6413 49.7594 107.219 29.9121C133.778 10.0793 165.33 1.51095 185.607 0.000976562L185.625 0H720.779L720.469 0.702148ZM191.465 87.665C182.272 87.665 168.419 89.8677 156.716 96.4961C144.992 103.137 135.407 114.238 134.885 131.982C134.625 140.845 136.831 147.742 140.616 153.093C144.396 158.438 149.727 162.205 155.664 164.86C167.522 170.164 181.888 171.065 191.459 171.173H372.451V87.665H191.465Z" fill="white"/>
<defs>
<linearGradient id="paint0_linear_3_67" x1="234.5" y1="255" x2="234.5" y2="769" gradientUnits="userSpaceOnUse">
<stop offset="0.370192" stop-color="white"/>
<stop offset="1" stop-color="#1447E6" stop-opacity="0.501961"/>
</linearGradient>
</defs>
</svg>
