<?xml version="1.0" encoding="UTF-8"?>
<svg version="1.1" xmlns="http://www.w3.org/2000/svg" width="1024" height="1024">
<path d="M0 0 C1.91706854 -0.0008744 3.83413685 -0.00262968 5.75120389 -0.00517833 C10.96669244 -0.0096098 16.18209746 -0.00170667 21.39757538 0.00837779 C27.04148334 0.01707121 32.68538715 0.01408799 38.32929993 0.01257324 C48.09039029 0.0115281 57.85145378 0.01776584 67.61253738 0.02904892 C81.72516136 0.04535137 95.83777243 0.05051677 109.95040481 0.0530249 C132.85109026 0.05739458 155.75175822 0.07066661 178.6524353 0.08963013 C200.8890882 0.10802242 223.12573725 0.12217814 245.36239624 0.13064575 C246.04878854 0.1309088 246.73518085 0.13117186 247.44237292 0.13144288 C254.3359071 0.1340801 261.22944131 0.1366317 268.12297555 0.1391206 C325.8600188 0.15997445 383.59704689 0.19524099 441.33407593 0.24050903 C442.3219376 3.70380582 442.22593318 5.3385315 440.90634155 8.72341919 C440.56848633 9.60599396 440.2306311 10.48856873 439.88253784 11.39788818 C439.50560791 12.34884369 439.12867798 13.29979919 438.74032593 14.27957153 C438.35598389 15.27443573 437.97164185 16.26929993 437.57565308 17.29431152 C436.3387552 20.48882017 435.08668656 23.6771332 433.83407593 26.86550903 C433.0205678 28.95886754 432.20805714 31.05261397 431.39657593 33.14675903 C429.86950187 37.08229097 428.33689883 41.01555762 426.79696655 44.94607544 C423.63022027 53.03935979 420.48401407 61.14066809 417.33407593 69.24050903 C360.90407593 69.24050903 304.47407593 69.24050903 246.33407593 69.24050903 C246.66407593 86.07050903 246.99407593 102.90050903 247.33407593 120.24050903 C247.33407593 128.24050903 247.33407593 128.24050903 246.33407593 131.24050903 C247.25876678 131.23162659 248.18345764 131.22274414 249.13616943 131.21359253 C257.93076508 131.13281847 266.72523281 131.07222957 275.52011681 131.03326035 C280.03964682 131.01255111 284.55886559 130.98454605 289.07821655 130.93875122 C293.45493163 130.89468878 297.83135095 130.87124738 302.20827103 130.86100006 C303.86251088 130.85371527 305.51673803 130.83949715 307.17084885 130.81758881 C336.49732747 130.44528114 363.05709951 140.86217472 384.52157593 160.99050903 C402.56163768 179.94206864 413.80070261 205.26216764 413.64657593 231.49050903 C413.64166138 232.49194946 413.63674683 233.49338989 413.63168335 234.525177 C413.27962544 256.9738338 404.86587042 277.22183012 390.33407593 294.24050903 C389.69598999 295.07066528 389.05790405 295.90082153 388.40048218 296.75613403 C373.08637059 315.16780694 347.90981874 325.23541536 324.72564697 328.03800964 C319.88468291 328.44790433 315.03253008 328.36102402 310.17782593 328.33816528 C309.03495117 328.33675034 307.89207642 328.33533539 306.71456909 328.33387756 C303.08771068 328.32830928 299.46091548 328.31576265 295.83407593 328.30300903 C293.36532682 328.29798993 290.89657675 328.29342774 288.42782593 328.28933716 C282.3965546 328.27835025 276.36531978 328.26164388 270.33407593 328.24050903 C270.98010688 322.86589791 272.70288866 318.21167574 274.65048218 313.20535278 C274.98523056 312.33141373 275.31997894 311.45747467 275.66487122 310.55705261 C276.73682574 307.76197539 277.8165005 304.96995686 278.89657593 302.17800903 C279.59566792 300.35985116 280.29424005 298.54149331 280.99227905 296.72293091 C282.38902386 293.08572978 283.7885845 289.44963066 285.19003296 285.8142395 C288.59775587 276.96641665 291.96500346 268.10310529 295.33407593 259.24050903 C297.2611438 259.25489014 297.2611438 259.25489014 299.22714233 259.26956177 C300.37536469 259.27788528 300.37536469 259.27788528 301.54678345 259.28637695 C303.1456607 259.29867531 304.7445164 259.31385285 306.34335327 259.33059692 C310.46971153 259.45474173 310.46971153 259.45474173 314.33407593 258.24050903 C315.50970093 258.30238403 316.68532593 258.36425903 317.89657593 258.42800903 C325.1217139 258.49345412 331.55039536 254.89443589 336.76376343 250.05691528 C342.41181208 243.52372467 344.75047764 235.80123826 344.33407593 227.24050903 C343.20816871 220.57395312 340.53678528 214.55284461 336.33407593 209.24050903 C335.67407593 208.91050903 335.01407593 208.58050903 334.33407593 208.24050903 C334.33407593 207.58050903 334.33407593 206.92050903 334.33407593 206.24050903 C332.67101753 205.56489156 331.00312988 204.90117622 329.33407593 204.24050903 C328.72950562 203.98785278 328.1249353 203.73519653 327.50204468 203.47488403 C326.52171265 203.08043091 326.52171265 203.08043091 325.52157593 202.67800903 C324.91700562 202.42921997 324.3124353 202.18043091 323.68954468 201.92410278 C315.38211095 199.51315601 306.46913201 200.0241384 297.89657593 199.92410278 C296.40584788 199.90349809 294.91512522 199.88250078 293.42440796 199.86112976 C289.52501823 199.8062717 285.62557899 199.7567045 281.72610474 199.70828247 C277.73731141 199.65780043 273.74858884 199.6022546 269.75985718 199.54714966 C261.95132357 199.44001256 254.1427306 199.33847136 246.33407593 199.24050903 C246.66407593 200.23050903 246.99407593 201.22050903 247.33407593 202.24050903 C247.43059999 205.2546744 247.46870821 208.24557678 247.46105957 211.25984192 C247.46261956 212.19477897 247.46417955 213.12971602 247.46578681 214.0929845 C247.46979082 217.24202866 247.46660888 220.39102501 247.46347046 223.54006958 C247.46482525 225.79444914 247.46660562 228.04882848 247.46878052 230.3032074 C247.47335937 236.45535943 247.47155981 242.60749478 247.46840143 248.75964713 C247.4658638 255.24641702 247.46822079 261.7331855 247.4697876 268.21995544 C247.47172908 279.87411961 247.46860956 291.52827626 247.46352826 303.18243925 C247.45911604 313.62033807 247.45978837 324.05822568 247.46444702 334.49612427 C247.46988501 346.6853252 247.47174171 358.87451901 247.46883476 371.063721 C247.46730543 377.48738071 247.46698125 383.91103284 247.47037125 390.334692 C247.48176204 415.93974565 247.41451932 441.54499366 247.06166053 467.14794505 C247.02993217 469.5621769 247.00266535 471.9764724 246.98032975 474.39080942 C246.63246235 510.15423067 236.56130842 540.35464599 212.81454468 567.40066528 C210.34329431 570.15867563 210.34329431 570.15867563 208.32235718 572.92410278 C206.17054954 575.4310221 204.19544078 576.62452738 201.33407593 578.24050903 C199.47680277 579.68950232 197.64414626 581.1704645 195.83407593 582.67800903 C180.64724689 595.28393033 180.64724689 595.28393033 176.04501343 595.19754028 C172.12771119 593.81463099 169.52392654 591.36313521 166.45907593 588.61550903 C165.84064819 588.07442505 165.22222046 587.53334106 164.58505249 586.9758606 C161.30610947 584.08409904 158.13780001 581.12154259 155.08407593 577.99050903 C154.17657593 577.08300903 153.26907593 576.17550903 152.33407593 575.24050903 C151.67407593 575.24050903 151.01407593 575.24050903 150.33407593 575.24050903 C150.00407593 574.25050903 149.67407593 573.26050903 149.33407593 572.24050903 C147.74341306 570.62806517 147.74341306 570.62806517 145.77157593 569.05300903 C141.9652153 565.83646285 138.46495443 562.41938366 134.99813843 558.84207153 C133.4098486 557.1542218 133.4098486 557.1542218 131.33407593 556.24050903 C131.33407593 555.58050903 131.33407593 554.92050903 131.33407593 554.24050903 C130.67407593 554.24050903 130.01407593 554.24050903 129.33407593 554.24050903 C129.33407593 553.58050903 129.33407593 552.92050903 129.33407593 552.24050903 C126.69503222 550.82673562 124.26286964 549.86810769 121.33407593 549.24050903 C121.33407593 548.25050903 121.33407593 547.26050903 121.33407593 546.24050903 C122.2080603 545.92920044 122.2080603 545.92920044 123.09970093 545.61160278 C143.35045701 538.00164885 159.47558952 523.91085969 168.68899155 504.1782074 C173.75667461 492.51378928 174.92796264 480.67325072 174.87997437 468.10379028 C174.88880128 466.53991174 174.89935722 464.97604219 174.91147232 463.41218567 C174.93884489 459.27761426 174.94299338 455.14334633 174.9418335 451.00869751 C174.94440225 447.10865405 174.968579 443.20885125 174.99081421 439.30886841 C175.04327357 427.95282723 175.06165647 416.59664924 175.08407593 405.24050903 C175.16657593 379.83050903 175.24907593 354.42050903 175.33407593 328.24050903 C80.29407593 328.24050903 -14.74592407 328.24050903 -112.66592407 328.24050903 C-100.05548731 295.45337344 -100.05548731 295.45337344 -94.81314087 282.38967896 C-94.07283058 280.53898654 -93.33735922 278.68635295 -92.60610962 276.83206177 C-91.52334001 274.08755304 -90.42645822 271.34909076 -89.32608032 268.61160278 C-89.00108047 267.77962875 -88.67608063 266.94765472 -88.3412323 266.09046936 C-87.53336553 264.10425377 -86.60932732 262.16604569 -85.66592407 260.24050903 C-82.85632545 259.30397616 -81.17146451 259.1160522 -78.26749897 259.1174612 C-76.91046516 259.11447463 -76.91046516 259.11447463 -75.52601653 259.11142772 C-74.5308904 259.11434057 -73.53576426 259.11725341 -72.51048279 259.12025452 C-71.454363 259.11940009 -70.39824322 259.11854567 -69.31011981 259.11766535 C-65.75398093 259.11601184 -62.19788872 259.12152986 -58.64175415 259.12698364 C-56.09947206 259.12726557 -53.55718988 259.12710768 -51.01490784 259.12654114 C-45.53266107 259.12631306 -40.05042946 259.12915844 -34.56818581 259.13477898 C-26.64174793 259.14290009 -18.71531582 259.14550983 -10.78887423 259.14676697 C2.07071593 259.14895652 14.93029975 259.15561401 27.78988647 259.16506958 C40.28305021 259.17424618 52.77621223 259.18132581 65.26937866 259.18557739 C66.4241637 259.18597148 66.4241637 259.18597148 67.60227772 259.18637352 C71.46435619 259.18767855 75.32643467 259.18894226 79.18851316 259.19018543 C111.2370397 259.20055504 143.28555445 259.21899174 175.33407593 259.24050903 C175.33407593 239.44050903 175.33407593 219.64050903 175.33407593 199.24050903 C169.61732544 199.27603882 163.90057495 199.3115686 158.0105896 199.34817505 C139.07956613 199.46501926 120.14851068 199.57579218 101.21743298 199.68347263 C89.7444936 199.74887807 78.27157324 199.8163277 66.79867554 199.88870239 C56.79116693 199.95182763 46.78364381 200.01100257 36.77608472 200.06556457 C31.48422211 200.09455071 26.19238668 200.12542613 20.90056419 200.16104317 C15.90446132 200.19460714 10.90835486 200.22282956 5.91219902 200.24721527 C4.09314094 200.25698817 2.27409148 200.26859788 0.45505905 200.2823391 C-23.81795658 200.46283525 -48.25269822 200.53630286 -69.66592407 187.24050903 C-69.99592407 186.58050903 -70.32592407 185.92050903 -70.66592407 185.24050903 C-71.98660942 184.54912461 -73.32212601 183.88582213 -74.66592407 183.24050903 C-77.42944818 181.36526053 -80.04560612 179.30993747 -82.66592407 177.24050903 C-83.31947876 176.72488403 -83.97303345 176.20925903 -84.64639282 175.67800903 C-101.3350664 161.82074714 -112.45639861 141.36961104 -116.66592407 120.24050903 C-116.83873901 119.52048706 -117.01155396 118.80046509 -117.18960571 118.05862427 C-118.65957288 111.59983237 -118.84647144 105.65057833 -118.47842407 99.05300903 C-118.39950928 97.54081787 -118.39950928 97.54081787 -118.31900024 95.99807739 C-116.65192452 68.37319736 -106.01869768 45.03541602 -85.66592407 26.24050903 C-81.84167676 22.9828567 -77.80520287 20.08546226 -73.66592407 17.24050903 C-73.03299438 16.73777466 -72.4000647 16.23504028 -71.74795532 15.71707153 C-59.78470217 7.2328132 -43.77670163 2.66178637 -29.35207558 1.1188221 C-28.57860154 1.03538087 -27.80512751 0.95193965 -27.00821487 0.8659699 C-18.00925073 -0.02647003 -9.03442608 -0.03112738 0 0 Z M-42.66592407 78.24050903 C-48.77986555 87.03574532 -51.61199093 94.47336722 -50.66592407 105.24050903 C-49.11368553 113.23649414 -44.86479309 121.03550372 -38.41592407 126.11550903 C-28.03881679 132.382691 -16.86899055 131.65158291 -5.17129517 131.58108521 C-3.19940199 131.58023801 -1.22750786 131.58071587 0.74438477 131.58241272 C6.07428492 131.5832705 11.40398092 131.56567992 16.73383379 131.54469085 C22.31251511 131.52588779 27.89120155 131.52417075 33.46990967 131.52061462 C44.02357984 131.51130482 54.57715635 131.48670543 65.13078535 131.45656615 C77.1501224 131.42298901 89.16946402 131.4065278 101.18883634 131.39147985 C125.90398003 131.36015493 150.61899539 131.30515613 175.33407593 131.24050903 C175.33407593 110.78050903 175.33407593 90.32050903 175.33407593 69.24050903 C149.31690478 69.15014871 123.29986106 69.07649198 97.28257275 69.03326035 C85.20178286 69.01265192 73.12109753 68.98456409 61.04037476 68.93875122 C50.50847356 68.89883094 39.97664811 68.87306372 29.44467336 68.86415505 C23.87018252 68.85894914 18.29590832 68.84674895 12.72148705 68.81758881 C7.46922792 68.79033781 2.21727367 68.78208363 -3.03504944 68.78807831 C-4.95745185 68.7869824 -6.87986499 68.77908652 -8.80220604 68.76368713 C-27.36920958 68.57735867 -27.36920958 68.57735867 -42.66592407 78.24050903 Z " fill="#01060C" transform="translate(358.6659240722656,224.75949096679688)"/>
<path d="M0 0 C0.99 0.66 1.98 1.32 3 2 C2.51792121 6.91720369 1.52068323 9.83117774 -1 14 C-1.46195294 15.61821838 -1.89682636 17.24428032 -2.3125 18.875 C-3.801681 24.13001568 -6.25682856 27.14224168 -10 31 C-10.78375 31.99 -11.5675 32.98 -12.375 34 C-20.7897747 43.61688538 -31.68141728 51.18699949 -43 57 C-43 58.32 -43 59.64 -43 61 C-42.01 61 -41.02 61 -40 61 C-38.72445185 62.46688037 -37.45118883 63.93976866 -36.28125 65.4921875 C-34.88527155 67.27499979 -34.88527155 67.27499979 -32 69 C-32 69.66 -32 70.32 -32 71 C-31.01 71 -30.02 71 -29 71 C-24 76.34883721 -24 76.34883721 -24 79 C-23.40703125 79.26425781 -22.8140625 79.52851562 -22.203125 79.80078125 C-19.91970946 81.04370425 -18.52573277 82.30401646 -16.75 84.1875 C-13.02173335 88.027296 -9.06483074 91.52266433 -5 95 C-4.319375 95.58523438 -3.63875 96.17046875 -2.9375 96.7734375 C-1.29398963 98.18500084 0.35266531 99.59290162 2 101 C7.62164978 99.12611674 11.92692435 95.65846052 16.5 92 C18.5365525 90.370758 20.58569798 88.79276602 22.6875 87.25 C23.26886719 86.82203125 23.85023438 86.3940625 24.44921875 85.953125 C26 85 26 85 28 85 C28.2475 84.401875 28.495 83.80375 28.75 83.1875 C30.18072525 80.68373081 31.5691582 79.51927612 34 78 C34.66 78 35.32 78 36 78 C36 76.68 36 75.36 36 74 C37.63604196 72.62926214 39.30678061 71.29944744 41 70 C42.01656081 68.34338239 43.02065076 66.67888441 44 65 C44.66 65 45.32 65 46 65 C46.2475 64.319375 46.495 63.63875 46.75 62.9375 C48.24197908 59.43134917 50.06835511 56.28379632 52 53 C52.66 53 53.32 53 54 53 C54.99 50.03 54.99 50.03 56 47 C57.32 47 58.64 47 60 47 C54.42570521 59.35456683 45.99216311 71.06506001 36.36328125 80.625 C34.75591275 82.15821984 34.75591275 82.15821984 33 85 C31.34671831 86.02197721 29.67783423 87.01885268 28 88 C26.14272684 89.44899329 24.31007033 90.92995547 22.5 92.4375 C7.31317096 105.0434213 7.31317096 105.0434213 2.7109375 104.95703125 C-1.20636474 103.57412196 -3.81014939 101.12262618 -6.875 98.375 C-7.49342773 97.83391602 -8.11185547 97.29283203 -8.74902344 96.73535156 C-12.02796646 93.84359001 -15.19627592 90.88103356 -18.25 87.75 C-19.61125 86.38875 -19.61125 86.38875 -21 85 C-21.66 85 -22.32 85 -23 85 C-23.33 84.01 -23.66 83.02 -24 82 C-25.59066286 80.38755614 -25.59066286 80.38755614 -27.5625 78.8125 C-31.36886063 75.59595381 -34.8691215 72.17887463 -38.3359375 68.6015625 C-39.92422733 66.91371276 -39.92422733 66.91371276 -42 66 C-42 65.34 -42 64.68 -42 64 C-42.66 64 -43.32 64 -44 64 C-44 63.34 -44 62.68 -44 62 C-46.63904371 60.58622659 -49.07120629 59.62759865 -52 59 C-52 58.01 -52 57.02 -52 56 C-51.41734375 55.79246094 -50.8346875 55.58492187 -50.234375 55.37109375 C-29.50463671 47.58114493 -14.04420866 33.39504958 -4.4765625 13.4296875 C-2.58717202 9.04110326 -1.12292267 4.64141371 0 0 Z " fill="#1A4374" transform="translate(532,715)"/>
<path d="M0 0 C0.33 0 0.66 0 1 0 C1.79692838 10.03275911 2.12847075 19.93645782 2 30 C2.66 30.33 3.32 30.66 4 31 C4.15393687 66.01234849 3.73982277 100.99549967 3 136 C2.67 136 2.34 136 2 136 C1.67 134.35 1.34 132.7 1 131 C0.67 131 0.34 131 0 131 C0 87.77 0 44.54 0 0 Z " fill="#050E20" transform="translate(602,585)"/>
<path d="M0 0 C0.99 0.33 1.98 0.66 3 1 C-2.57429479 13.35456683 -11.00783689 25.06506001 -20.63671875 34.625 C-22.24408725 36.15821984 -22.24408725 36.15821984 -24 39 C-25.65328169 40.02197721 -27.32216577 41.01885268 -29 42 C-30.85727316 43.44899329 -32.68992967 44.92995547 -34.5 46.4375 C-49.56466197 58.94201576 -49.56466197 58.94201576 -54.625 59.0625 C-57.79559189 57.64407731 -59.69912779 55.56382903 -62 53 C-61.67 52.01 -61.34 51.02 -61 50 C-59.02 51.65 -57.04 53.3 -55 55 C-49.37835022 53.12611674 -45.07307565 49.65846052 -40.5 46 C-38.4634475 44.370758 -36.41430202 42.79276602 -34.3125 41.25 C-33.73113281 40.82203125 -33.14976562 40.3940625 -32.55078125 39.953125 C-31 39 -31 39 -29 39 C-28.7525 38.401875 -28.505 37.80375 -28.25 37.1875 C-26.81927475 34.68373081 -25.4308418 33.51927612 -23 32 C-22.34 32 -21.68 32 -21 32 C-21 30.68 -21 29.36 -21 28 C-19.36395804 26.62926214 -17.69321939 25.29944744 -16 24 C-14.98343919 22.34338239 -13.97934924 20.67888441 -13 19 C-12.34 19 -11.68 19 -11 19 C-10.7525 18.319375 -10.505 17.63875 -10.25 16.9375 C-8.75802092 13.43134917 -6.93164489 10.28379632 -5 7 C-4.34 7 -3.68 7 -3 7 C-2.690625 6.030625 -2.38125 5.06125 -2.0625 4.0625 C-1 1 -1 1 0 0 Z " fill="#1E4675" transform="translate(589,761)"/>
<path d="M0 0 C0.99 0.66 1.98 1.32 3 2 C2.51792121 6.91720369 1.52068323 9.83117774 -1 14 C-1.46195294 15.61821838 -1.89682636 17.24428032 -2.3125 18.875 C-3.801681 24.13001568 -6.25682856 27.14224168 -10 31 C-10.78375 31.99 -11.5675 32.98 -12.375 34 C-20.77256363 43.59721557 -31.33598721 52.36280862 -44 55 C-41.19291714 51.99054606 -38.41170724 49.90049771 -34.875 47.8125 C-17.24214376 36.7685169 -4.89998267 20.25326169 0 0 Z " fill="#14345F" transform="translate(532,715)"/>
<path d="M0 0 C3.39998982 5.88714191 1.6246949 11.74734171 -0.01171875 18.046875 C-2.30625847 26.37721456 -5.07851289 34.27383603 -9 42 C-9.99 41.67 -10.98 41.34 -12 41 C-11.54363464 39.603522 -11.08480512 38.2078492 -10.625 36.8125 C-10.36976563 36.03519531 -10.11453125 35.25789062 -9.8515625 34.45703125 C-9.28602888 32.82528516 -8.67651104 31.20809903 -8.0234375 29.609375 C-4.69246323 21.11666198 -2.66845643 12.24319172 -1.39453125 3.23046875 C-1 1 -1 1 0 0 Z " fill="#123563" transform="translate(602,719)"/>
<path d="M0 0 C0.99 0.33 1.98 0.66 3 1 C-2.32269031 12.79692421 -10.18069241 23.54028626 -19 33 C-19.66 33 -20.32 33 -21 33 C-21.3125 30.75 -21.3125 30.75 -21 28 C-18.6875 26 -18.6875 26 -16 24 C-14.98343919 22.34338239 -13.97934924 20.67888441 -13 19 C-12.34 19 -11.68 19 -11 19 C-10.7525 18.319375 -10.505 17.63875 -10.25 16.9375 C-8.75802092 13.43134917 -6.93164489 10.28379632 -5 7 C-4.34 7 -3.68 7 -3 7 C-2.690625 6.030625 -2.38125 5.06125 -2.0625 4.0625 C-1 1 -1 1 0 0 Z " fill="#18457C" transform="translate(589,761)"/>
<path d="M0 0 C0.33 0 0.66 0 1 0 C2.00045353 14.17943406 2.30840213 28.35272477 2.5625 42.5625 C2.60581203 44.84570898 2.64942975 47.12891219 2.69335938 49.41210938 C2.79909025 54.94134473 2.90107414 60.47063892 3 66 C2.67 66 2.34 66 2 66 C1.505 63.525 1.505 63.525 1 61 C0.67 61 0.34 61 0 61 C0 40.87 0 20.74 0 0 Z " fill="#0E2A53" transform="translate(602,655)"/>
<path d="M0 0 C0.99 0.66 1.98 1.32 3 2 C2.52541798 6.8407366 1.66233226 9.95325496 -1 14 C-1.69822617 15.65369357 -2.37498605 17.31727014 -3 19 C-3.66 19 -4.32 19 -5 19 C-5.226875 19.86625 -5.45375 20.7325 -5.6875 21.625 C-7.24025095 25.61778814 -9.14319895 27.84248305 -12 31 C-12.33 30.01 -12.66 29.02 -13 28 C-11.9609375 26.16015625 -11.9609375 26.16015625 -10.375 24.0625 C-5.28758296 16.80997291 -2.14160875 8.566435 0 0 Z " fill="#102F57" transform="translate(532,715)"/>
<path d="M0 0 C-0.825 0.4125 -1.65 0.825 -2.5 1.25 C-3.325 1.8275 -4.15 2.405 -5 3 C-5 4.32 -5 5.64 -5 7 C-4.01 7 -3.02 7 -2 7 C-1.34 8.32 -0.68 9.64 0 11 C-3 10 -3 10 -4 9 C-4.99 9.495 -4.99 9.495 -6 10 C-6 9.34 -6 8.68 -6 8 C-8.63904371 6.58622659 -11.07120629 5.62759865 -14 5 C-14 4.01 -14 3.02 -14 2 C-11.33333333 1.33333333 -8.66666667 0.66666667 -6 0 C-5.29359375 -0.20753906 -4.5871875 -0.41507813 -3.859375 -0.62890625 C-2 -1 -2 -1 0 0 Z " fill="#234673" transform="translate(494,769)"/>
<path d="M0 0 C3.25281529 5.51345912 1.68908218 11.12398857 0.2578125 17.09765625 C-0.45924551 19.74394178 -1.20671178 22.37566288 -2 25 C-2.66 25 -3.32 25 -4 25 C-3.71599915 22.14488509 -3.42304348 19.2911551 -3.125 16.4375 C-3.04636719 15.63763672 -2.96773437 14.83777344 -2.88671875 14.01367188 C-2.36862582 9.13164237 -1.49454158 4.67829193 0 0 Z " fill="#122B50" transform="translate(602,719)"/>
<path d="M0 0 C0.99 0.33 1.98 0.66 3 1 C-0.72941924 9.26568399 -5.28874877 18.85916585 -13 24 C-10.95621087 19.65694811 -8.28544827 15.75897734 -5.65625 11.75390625 C-4.1250526 9.20792945 -3.02989196 6.77787373 -2 4 C-1.34786461 2.65949948 -0.68620031 1.32338632 0 0 Z " fill="#162E51" transform="translate(589,761)"/>
<path d="M0 0 C0.33 0 0.66 0 1 0 C1.79692838 10.03275911 2.12847075 19.93645782 2 30 C2.66 30.33 3.32 30.66 4 31 C3.34 32.98 2.68 34.96 2 37 C1.67 37 1.34 37 1 37 C0.07191062 28.74973532 -0.1230629 20.6096172 -0.0625 12.3125 C-0.05798828 11.12205078 -0.05347656 9.93160156 -0.04882812 8.70507812 C-0.03717452 5.80333064 -0.02081559 2.90169374 0 0 Z " fill="#06132A" transform="translate(602,585)"/>
<path d="M0 0 C0.66 0 1.32 0 2 0 C0.53291432 5.72163415 -2.41188562 10.36860237 -6 15 C-6.99 15.495 -6.99 15.495 -8 16 C-7.31387652 12.12763186 -5.52450228 9.12741765 -3.5625 5.75 C-2.94503906 4.67234375 -2.32757812 3.5946875 -1.69140625 2.484375 C-1.13324219 1.66453125 -0.57507813 0.8446875 0 0 Z " fill="#112746" transform="translate(527,730)"/>
<path d="M0 0 C0.6640625 1.7578125 0.6640625 1.7578125 1 4 C-0.0390625 5.9296875 -0.0390625 5.9296875 -1.625 7.875 C-2.17671875 8.56335938 -2.7284375 9.25171875 -3.296875 9.9609375 C-3.85890625 10.63382813 -4.4209375 11.30671875 -5 12 C-5.50015625 12.61101563 -6.0003125 13.22203125 -6.515625 13.8515625 C-7.66455333 15.24480317 -8.83043305 16.62403888 -10 18 C-10.66 17.67 -11.32 17.34 -12 17 C-11.38511719 16.27554688 -10.77023437 15.55109375 -10.13671875 14.8046875 C-9.32847656 13.83789062 -8.52023437 12.87109375 -7.6875 11.875 C-6.48673828 10.44800781 -6.48673828 10.44800781 -5.26171875 8.9921875 C-3.07635278 6.10101249 -1.50678822 3.28665134 0 0 Z " fill="#123D73" transform="translate(527,734)"/>
<path d="M0 0 C0.66 0.33 1.32 0.66 2 1 C0.74057614 2.19959375 -0.53295286 3.38439443 -1.8125 4.5625 C-2.87404297 5.55443359 -2.87404297 5.55443359 -3.95703125 6.56640625 C-4.63121094 7.03949219 -5.30539062 7.51257813 -6 8 C-6.99 7.67 -7.98 7.34 -9 7 C-6.03716687 4.61327331 -3.05729491 2.2646629 0 0 Z " fill="#1C5595" transform="translate(555,802)"/>
<path d="M0 0 C0.99 0.33 1.98 0.66 3 1 C2.01 2.98 1.02 4.96 0 7 C-0.99 7 -1.98 7 -3 7 C-1.125 1.125 -1.125 1.125 0 0 Z " fill="#133769" transform="translate(589,761)"/>
<path d="M0 0 C0.66 0.33 1.32 0.66 2 1 C0.7934375 1.61875 0.7934375 1.61875 -0.4375 2.25 C-3.14109718 3.73452331 -3.14109718 3.73452331 -3.8125 6.1875 C-3.9053125 7.0846875 -3.9053125 7.0846875 -4 8 C-4.99 6.68 -5.98 5.36 -7 4 C-1.7265625 0.77734375 -1.7265625 0.77734375 0 0 Z " fill="#1A4C86" transform="translate(492,768)"/>
<path d="M0 0 C3.3 0 6.6 0 10 0 C10 0.33 10 0.66 10 1 C6.7 1 3.4 1 0 1 C0 0.67 0 0.34 0 0 Z " fill="#0C0D0C" transform="translate(416,295)"/>
<path d="M0 0 C2.31 0 4.62 0 7 0 C7 0.33 7 0.66 7 1 C4.69 1 2.38 1 0 1 C0 0.67 0 0.34 0 0 Z " fill="#09090A" transform="translate(472,295)"/>
<path d="M0 0 C2.31 0 4.62 0 7 0 C7 0.33 7 0.66 7 1 C4.69 1 2.38 1 0 1 C0 0.67 0 0.34 0 0 Z " fill="#0A0909" transform="translate(464,295)"/>
<path d="M0 0 C1.98 0 3.96 0 6 0 C6 0.33 6 0.66 6 1 C4.02 1 2.04 1 0 1 C0 0.67 0 0.34 0 0 Z " fill="#0C0B0B" transform="translate(736,295)"/>
<path d="M0 0 C1.98 0 3.96 0 6 0 C6 0.33 6 0.66 6 1 C4.02 1 2.04 1 0 1 C0 0.67 0 0.34 0 0 Z " fill="#0A0A0A" transform="translate(680,295)"/>
<path d="M0 0 C1.98 0 3.96 0 6 0 C6 0.33 6 0.66 6 1 C4.02 1 2.04 1 0 1 C0 0.67 0 0.34 0 0 Z " fill="#090A09" transform="translate(480,295)"/>
<path d="M0 0 C1.98 0 3.96 0 6 0 C6 0.33 6 0.66 6 1 C4.02 1 2.04 1 0 1 C0 0.67 0 0.34 0 0 Z " fill="#0E0F0E" transform="translate(400,295)"/>
<path d="M0 0 C1.65 0 3.3 0 5 0 C5 0.33 5 0.66 5 1 C3.35 1 1.7 1 0 1 C0 0.67 0 0.34 0 0 Z " fill="#0E0E0E" transform="translate(384,295)"/>
<path d="M0 0 C1 4 1 4 1 4 Z " fill="#050709" transform="translate(532,468)"/>
<path d="M0 0 C4 1 4 1 4 1 Z " fill="#060808" transform="translate(522,295)"/>
<path d="M0 0 C4 1 4 1 4 1 Z " fill="#0A090A" transform="translate(458,295)"/>
<path d="M0 0 C4 1 4 1 4 1 Z " fill="#0B0D0C" transform="translate(434,295)"/>
<path d="M0 0 C4 1 4 1 4 1 Z " fill="#0F0E0E" transform="translate(391,295)"/>
<path d="" fill="#21456E" transform="translate(0,0)"/>
<path d="M0 0 C3 1 3 1 3 1 Z " fill="#0A0B0B" transform="translate(720,295)"/>
<path d="M0 0 C3 1 3 1 3 1 Z " fill="#09090A" transform="translate(674,295)"/>
<path d="M0 0 C3 1 3 1 3 1 Z " fill="#080707" transform="translate(512,295)"/>
<path d="M0 0 C3 1 3 1 3 1 Z " fill="#080909" transform="translate(490,295)"/>
<path d="M0 0 C3 1 3 1 3 1 Z " fill="#0C0D0B" transform="translate(440,295)"/>
<path d="M0 0 C3 1 3 1 3 1 Z " fill="#0E0E0E" transform="translate(408,295)"/>
<path d="M0 0 C3 1 3 1 3 1 Z " fill="#0F0E0F" transform="translate(396,295)"/>
<path d="M0 0 C3 1 3 1 3 1 Z " fill="#111010" transform="translate(372,295)"/>
<path d="M0 0 C3 1 3 1 3 1 Z " fill="#0F100F" transform="translate(368,295)"/>
<path d="M0 0 C3 1 3 1 3 1 Z " fill="#0F0F10" transform="translate(363,295)"/>
<path d="M0 0 C3 1 3 1 3 1 Z " fill="#0F0F10" transform="translate(359,295)"/>
<path d="M0 0 C3 1 3 1 3 1 Z " fill="#101110" transform="translate(352,295)"/>
<path d="" fill="#20446F" transform="translate(0,0)"/>
<path d="" fill="#1E3D63" transform="translate(0,0)"/>
<path d="" fill="#1C385A" transform="translate(0,0)"/>
<path d="" fill="#1B3458" transform="translate(0,0)"/>
<path d="" fill="#192E4C" transform="translate(0,0)"/>
<path d="" fill="#152944" transform="translate(0,0)"/>
<path d="" fill="#132641" transform="translate(0,0)"/>
<path d="" fill="#13233C" transform="translate(0,0)"/>
<path d="" fill="#0E1E34" transform="translate(0,0)"/>
<path d="" fill="#0F1B30" transform="translate(0,0)"/>
<path d="" fill="#0C182B" transform="translate(0,0)"/>
<path d="" fill="#0B1728" transform="translate(0,0)"/>
<path d="" fill="#05070B" transform="translate(0,0)"/>
<path d="" fill="#04070A" transform="translate(0,0)"/>
<path d="" fill="#040607" transform="translate(0,0)"/>
<path d="" fill="#040706" transform="translate(0,0)"/>
<path d="" fill="#060707" transform="translate(0,0)"/>
<path d="M0 0 C2 1 2 1 2 1 Z " fill="#080A09" transform="translate(478,354)"/>
<path d="" fill="#050706" transform="translate(0,0)"/>
<path d="" fill="#050505" transform="translate(0,0)"/>
<path d="" fill="#060706" transform="translate(0,0)"/>
<path d="M0 0 C2 1 2 1 2 1 Z " fill="#0C0C0C" transform="translate(752,295)"/>
<path d="M0 0 C2 1 2 1 2 1 Z " fill="#0A0B0B" transform="translate(728,295)"/>
<path d="M0 0 C2 1 2 1 2 1 Z " fill="#0A0B0C" transform="translate(724,295)"/>
<path d="M0 0 C2 1 2 1 2 1 Z " fill="#090A0A" transform="translate(712,295)"/>
<path d="M0 0 C2 1 2 1 2 1 Z " fill="#0B0A0A" transform="translate(700,295)"/>
<path d="M0 0 C2 1 2 1 2 1 Z " fill="#0A0B0A" transform="translate(688,295)"/>
<path d="M0 0 C2 1 2 1 2 1 Z " fill="#0A0A09" transform="translate(668,295)"/>
<path d="M0 0 C2 1 2 1 2 1 Z " fill="#090A09" transform="translate(664,295)"/>
<path d="M0 0 C2 1 2 1 2 1 Z " fill="#080808" transform="translate(656,295)"/>
<path d="M0 0 C2 1 2 1 2 1 Z " fill="#090908" transform="translate(633,295)"/>
<path d="M0 0 C2 1 2 1 2 1 Z " fill="#060707" transform="translate(624,295)"/>
<path d="M0 0 C2 1 2 1 2 1 Z " fill="#070808" transform="translate(620,295)"/>
<path d="M0 0 C2 1 2 1 2 1 Z " fill="#080808" transform="translate(507,295)"/>
<path d="M0 0 C2 1 2 1 2 1 Z " fill="#0A0B0A" transform="translate(452,295)"/>
<path d="M0 0 C2 1 2 1 2 1 Z " fill="#0C0D0B" transform="translate(447,295)"/>
<path d="M0 0 C2 1 2 1 2 1 Z " fill="#0E0F0D" transform="translate(412,295)"/>
<path d="M0 0 C2 1 2 1 2 1 Z " fill="#101110" transform="translate(356,295)"/>
<path d="M0 0 C2 1 2 1 2 1 Z " fill="#110F10" transform="translate(348,295)"/>
<path d="M0 0 C2 1 2 1 2 1 Z " fill="#121110" transform="translate(340,295)"/>
<path d="M0 0 C2 1 2 1 2 1 Z " fill="#111111" transform="translate(336,295)"/>
<path d="M0 0 C2 1 2 1 2 1 Z " fill="#181717" transform="translate(331,224)"/>
<path d="M0 0 C2 1 2 1 2 1 Z " fill="#181616" transform="translate(328,224)"/>
<path d="" fill="#4F5050" transform="translate(0,0)"/>
<path d="" fill="#456F99" transform="translate(0,0)"/>
<path d="" fill="#436E9B" transform="translate(0,0)"/>
<path d="" fill="#3D6C98" transform="translate(0,0)"/>
<path d="" fill="#3B6C9A" transform="translate(0,0)"/>
<path d="" fill="#366495" transform="translate(0,0)"/>
<path d="" fill="#386398" transform="translate(0,0)"/>
<path d="" fill="#396695" transform="translate(0,0)"/>
<path d="" fill="#336090" transform="translate(0,0)"/>
<path d="" fill="#305E91" transform="translate(0,0)"/>
<path d="" fill="#2F5D92" transform="translate(0,0)"/>
<path d="" fill="#305884" transform="translate(0,0)"/>
<path d="" fill="#305783" transform="translate(0,0)"/>
<path d="" fill="#385F8A" transform="translate(0,0)"/>
<path d="" fill="#2A5586" transform="translate(0,0)"/>
<path d="" fill="#274F7E" transform="translate(0,0)"/>
<path d="" fill="#294A75" transform="translate(0,0)"/>
<path d="" fill="#204570" transform="translate(0,0)"/>
<path d="" fill="#214471" transform="translate(0,0)"/>
<path d="" fill="#254975" transform="translate(0,0)"/>
<path d="" fill="#21436D" transform="translate(0,0)"/>
<path d="" fill="#1F3B62" transform="translate(0,0)"/>
<path d="" fill="#1D395D" transform="translate(0,0)"/>
<path d="" fill="#1C365A" transform="translate(0,0)"/>
<path d="" fill="#1B3256" transform="translate(0,0)"/>
<path d="" fill="#1B3455" transform="translate(0,0)"/>
<path d="" fill="#19324F" transform="translate(0,0)"/>
<path d="" fill="#13223C" transform="translate(0,0)"/>
<path d="" fill="#12233B" transform="translate(0,0)"/>
<path d="" fill="#101F37" transform="translate(0,0)"/>
<path d="" fill="#0F1E33" transform="translate(0,0)"/>
<path d="" fill="#0C1829" transform="translate(0,0)"/>
<path d="" fill="#18181B" transform="translate(0,0)"/>
<path d="" fill="#101827" transform="translate(0,0)"/>
<path d="" fill="#161517" transform="translate(0,0)"/>
<path d="" fill="#131517" transform="translate(0,0)"/>
<path d="" fill="#141716" transform="translate(0,0)"/>
<path d="" fill="#0A1323" transform="translate(0,0)"/>
<path d="" fill="#0F131C" transform="translate(0,0)"/>
<path d="" fill="#0B131D" transform="translate(0,0)"/>
<path d="" fill="#121414" transform="translate(0,0)"/>
<path d="" fill="#0C121C" transform="translate(0,0)"/>
<path d="" fill="#050708" transform="translate(0,0)"/>
<path d="" fill="#0B121C" transform="translate(0,0)"/>
<path d="" fill="#060708" transform="translate(0,0)"/>
<path d="" fill="#080F16" transform="translate(0,0)"/>
<path d="" fill="#050607" transform="translate(0,0)"/>
<path d="" fill="#050607" transform="translate(0,0)"/>
<path d="" fill="#050706" transform="translate(0,0)"/>
<path d="" fill="#0A0E13" transform="translate(0,0)"/>
<path d="" fill="#111413" transform="translate(0,0)"/>
<path d="" fill="#0C0E0E" transform="translate(0,0)"/>
<path d="" fill="#161814" transform="translate(0,0)"/>
<path d="" fill="#070707" transform="translate(0,0)"/>
<path d="" fill="#080708" transform="translate(0,0)"/>
<path d="" fill="#090907" transform="translate(0,0)"/>
<path d="" fill="#08080A" transform="translate(0,0)"/>
<path d="" fill="#0A0808" transform="translate(0,0)"/>
<path d="" fill="#101010" transform="translate(0,0)"/>
<path d="" fill="#060506" transform="translate(0,0)"/>
<path d="" fill="#050605" transform="translate(0,0)"/>
<path d="" fill="#050606" transform="translate(0,0)"/>
<path d="" fill="#0E100E" transform="translate(0,0)"/>
<path d="" fill="#0B0E0E" transform="translate(0,0)"/>
<path d="" fill="#0E0D0E" transform="translate(0,0)"/>
<path d="" fill="#0B0B0C" transform="translate(0,0)"/>
<path d="" fill="#0B0C0C" transform="translate(0,0)"/>
<path d="" fill="#0C0B0A" transform="translate(0,0)"/>
<path d="" fill="#0A0B0A" transform="translate(0,0)"/>
<path d="" fill="#090A0D" transform="translate(0,0)"/>
<path d="" fill="#0B0C0B" transform="translate(0,0)"/>
<path d="" fill="#0B0B0B" transform="translate(0,0)"/>
<path d="" fill="#0A0C0A" transform="translate(0,0)"/>
<path d="" fill="#080909" transform="translate(0,0)"/>
<path d="" fill="#090809" transform="translate(0,0)"/>
<path d="" fill="#06090A" transform="translate(0,0)"/>
<path d="" fill="#0A0809" transform="translate(0,0)"/>
<path d="" fill="#0A0909" transform="translate(0,0)"/>
<path d="" fill="#090A09" transform="translate(0,0)"/>
<path d="" fill="#070808" transform="translate(0,0)"/>
<path d="" fill="#080707" transform="translate(0,0)"/>
<path d="" fill="#060607" transform="translate(0,0)"/>
<path d="" fill="#080709" transform="translate(0,0)"/>
<path d="" fill="#07090A" transform="translate(0,0)"/>
<path d="" fill="#060707" transform="translate(0,0)"/>
<path d="" fill="#070706" transform="translate(0,0)"/>
<path d="" fill="#090909" transform="translate(0,0)"/>
<path d="" fill="#080A0A" transform="translate(0,0)"/>
<path d="" fill="#0A0B0B" transform="translate(0,0)"/>
<path d="" fill="#0D0D0D" transform="translate(0,0)"/>
<path d="" fill="#0B0D0C" transform="translate(0,0)"/>
<path d="" fill="#0E0D0C" transform="translate(0,0)"/>
<path d="" fill="#0F0F11" transform="translate(0,0)"/>
<path d="" fill="#0E0E0D" transform="translate(0,0)"/>
<path d="" fill="#101010" transform="translate(0,0)"/>
<path d="" fill="#101110" transform="translate(0,0)"/>
<path d="" fill="#181716" transform="translate(0,0)"/>
<path d="" fill="#171818" transform="translate(0,0)"/>
<path d="" fill="#171719" transform="translate(0,0)"/>
<path d="" fill="#151515" transform="translate(0,0)"/>
<path d="" fill="#181716" transform="translate(0,0)"/>
<path d="" fill="#2A2A2A" transform="translate(0,0)"/>
<path d="" fill="#30302F" transform="translate(0,0)"/>
</svg>
